<?xml version="1.0" encoding="utf-8"?>
<!-- Generator: Adobe Illustrator 24.1.1, SVG Export Plug-In . SVG Version: 6.00 Build 0)  -->
<svg version="1.1" id="Layer_1" xmlns="http://www.w3.org/2000/svg" xmlns:xlink="http://www.w3.org/1999/xlink" x="0px" y="0px"
	 viewBox="0 0 224.47 235.18" style="enable-background:new 0 0 224.47 235.18;" xml:space="preserve">
<style type="text/css">
	.st0{fill:#D6D6D6;}
	.st1{fill:none;stroke:#26D5EA;stroke-width:1.6628;stroke-miterlimit:10;}
	.st2{fill:#F7F7F7;}
	.st3{fill:#FFEA00;}
	.st4{fill:none;stroke:#F7F7F7;stroke-width:2;stroke-linecap:round;stroke-linejoin:round;stroke-miterlimit:10;}
	.st5{fill:#26D5EA;}
	.st6{fill:none;stroke:#FFEA00;stroke-width:2;stroke-linecap:round;stroke-linejoin:round;stroke-miterlimit:10;}
	.st7{fill:none;stroke:#26D5EA;stroke-width:2.3747;stroke-miterlimit:10;}
	.st8{fill:none;stroke:#F7F7F7;stroke-width:1.6547;stroke-linecap:round;stroke-linejoin:round;stroke-miterlimit:10;}
	.st9{fill:none;stroke:#26D5EA;stroke-width:1.6547;stroke-linecap:round;stroke-linejoin:round;stroke-miterlimit:10;}
	.st10{fill:none;stroke:#FFFFFF;stroke-miterlimit:10;}
</style>
<g>
	<line id="XMLID_662_" class="st8" x1="61.51" y1="187.42" x2="70.43" y2="196.35"/>
	<line id="XMLID_661_" class="st8" x1="30.87" y1="156.78" x2="47.28" y2="173.19"/>
	<line id="XMLID_660_" class="st8" x1="58.67" y1="158.77" x2="120.46" y2="220.55"/>
	<line id="XMLID_659_" class="st8" x1="27.17" y1="127.26" x2="39.7" y2="139.79"/>
	<line id="XMLID_658_" class="st9" x1="103.08" y1="177.35" x2="157.44" y2="231.72"/>
	<line id="XMLID_657_" class="st9" x1="21.05" y1="95.32" x2="79.02" y2="153.29"/>
	<line id="XMLID_656_" class="st8" x1="66.5" y1="114.95" x2="162.45" y2="210.9"/>
	<line id="XMLID_655_" class="st8" x1="26.82" y1="75.27" x2="47.13" y2="95.58"/>
	<line id="XMLID_654_" class="st8" x1="145.72" y1="168.35" x2="168.79" y2="191.42"/>
	<line id="XMLID_653_" class="st8" x1="3.83" y1="26.46" x2="121.47" y2="144.09"/>
	<line id="XMLID_652_" class="st9" x1="98.19" y1="94.99" x2="213.1" y2="209.91"/>
	<line id="XMLID_651_" class="st9" x1="47.43" y1="44.23" x2="74.12" y2="70.93"/>
	<line id="XMLID_377_" class="st8" x1="120.49" y1="91.47" x2="194.73" y2="165.71"/>
	<line id="XMLID_371_" class="st8" x1="44.7" y1="15.68" x2="99.56" y2="70.54"/>
	<line id="XMLID_361_" class="st9" x1="181.72" y1="126.88" x2="220.49" y2="165.66"/>
	<line id="XMLID_360_" class="st9" x1="78.22" y1="23.38" x2="153.55" y2="98.71"/>
	<line id="XMLID_359_" class="st8" x1="144.16" y1="63.5" x2="196.54" y2="115.88"/>
	<line id="XMLID_238_" class="st8" x1="84.44" y1="3.78" x2="123.62" y2="42.96"/>
	<line id="XMLID_237_" class="st9" x1="190.72" y1="84.23" x2="211.09" y2="104.61"/>
	<line id="XMLID_236_" class="st9" x1="115.78" y1="9.3" x2="167.44" y2="60.95"/>
	<line id="XMLID_235_" class="st8" x1="180.13" y1="47.82" x2="192.64" y2="60.34"/>
	<line id="XMLID_234_" class="st8" x1="158.14" y1="25.84" x2="166.78" y2="34.47"/>
</g>
</svg>
