<?xml version="1.0" encoding="utf-8"?>
<!-- Generator: Adobe Illustrator 24.1.1, SVG Export Plug-In . SVG Version: 6.00 Build 0)  -->
<svg version="1.1" id="Layer_1" xmlns="http://www.w3.org/2000/svg" xmlns:xlink="http://www.w3.org/1999/xlink" x="0px" y="0px"
	 viewBox="0 0 116.71 119.58" style="enable-background:new 0 0 116.71 119.58;" xml:space="preserve">
<style type="text/css">
	.st0{fill:#D6D6D6;}
	.st1{fill:none;stroke:#26D5EA;stroke-width:1.6628;stroke-miterlimit:10;}
	.st2{fill:#F7F7F7;}
	.st3{fill:#FFEA00;}
	.st4{fill:none;stroke:#F7F7F7;stroke-width:2;stroke-linecap:round;stroke-linejoin:round;stroke-miterlimit:10;}
	.st5{fill:#26D5EA;}
	.st6{fill:none;stroke:#FFEA00;stroke-width:2;stroke-linecap:round;stroke-linejoin:round;stroke-miterlimit:10;}
	.st7{fill:none;stroke:#26D5EA;stroke-width:2.3747;stroke-miterlimit:10;}
	.st8{fill:none;stroke:#F7F7F7;stroke-width:1.6547;stroke-linecap:round;stroke-linejoin:round;stroke-miterlimit:10;}
	.st9{fill:none;stroke:#26D5EA;stroke-width:1.6547;stroke-linecap:round;stroke-linejoin:round;stroke-miterlimit:10;}
	.st10{fill:none;stroke:#FFFFFF;stroke-miterlimit:10;}
</style>
<g id="XMLID_190_">
	<path id="XMLID_195_" class="st7" d="M111.93,61.57l-52.69,52.69c-0.54,0.54-1.43,0.54-1.97,0L4.58,61.57
		c-0.54-0.54-0.54-1.43,0-1.97L57.27,6.91c0.54-0.54,1.43-0.54,1.97,0l52.69,52.69C112.47,60.14,112.47,61.02,111.93,61.57z"/>
	<path id="XMLID_194_" class="st7" d="M88.94,61.14L58.82,91.27c-0.31,0.31-0.82,0.31-1.13,0L27.56,61.14
		c-0.31-0.31-0.31-0.82,0-1.13l30.13-30.13c0.31-0.31,0.82-0.31,1.13,0l30.13,30.13C89.25,60.33,89.25,60.83,88.94,61.14z"/>
</g>
</svg>
